<svg xmlns="http://www.w3.org/2000/svg" xmlns:xlink="http://www.w3.org/1999/xlink" viewBox="0 0 430 430" width="430" height="430" preserveAspectRatio="xMidYMid meet" style="width: 100%; height: 100%; transform: translate3d(0px, 0px, 0px); content-visibility: visible;"><defs><clipPath id="__lottie_element_51"><rect width="430" height="430" x="0" y="0"/></clipPath><clipPath id="__lottie_element_53"><path d="M0,0 L430,0 L430,430 L0,430z"/></clipPath><clipPath id="__lottie_element_58"><path d="M0,0 L430,0 L430,430 L0,430z"/></clipPath><clipPath id="__lottie_element_62"><path d="M0,0 L430,0 L430,430 L0,430z"/></clipPath><g id="__lottie_element_65"><g clip-path="url(#__lottie_element_66)" transform="matrix(1,0,0,1,0,10)" opacity="1" style="display: block;"><g transform="matrix(0.7071067690849304,-0.7071067690849304,0.7071067690849304,0.7071067690849304,211.443603515625,204.69808959960938)" opacity="1" style="display: none;"><g opacity="1" transform="matrix(1,0,0,1,0,0)"><path class="primary" fill="rgb(197,156,244)" fill-opacity="1" d=" M-37.25471115112305,24.550193786621094 C-37.25471115112305,24.550193786621094 113.0562973022461,24.07880210876465 113.0562973022461,24.07880210876465 C113.0562973022461,24.07880210876465 113.0562973022461,26.9555606842041 113.0562973022461,26.9555606842041 C113.0562973022461,26.9555606842041 144.4731903076172,26.9555606842041 144.4731903076172,26.9555606842041 C144.4731903076172,26.9555606842041 144.4731903076172,25.16785430908203 144.4731903076172,25.16785430908203 C144.4731903076172,25.16785430908203 175.89019775390625,25.16785430908203 175.89019775390625,25.16785430908203 C175.89019775390625,25.16785430908203 175.89019775390625,26.9555606842041 175.89019775390625,26.9555606842041 C175.89019775390625,26.9555606842041 207.30628967285156,26.9555606842041 207.30628967285156,26.9555606842041 C207.30628967285156,26.9555606842041 207.30628967285156,24.07880210876465 207.30628967285156,24.07880210876465 C207.30628967285156,24.07880210876465 220.27719116210938,24.071577072143555 220.27719116210938,24.071577072143555 C226.41209411621094,24.071577072143555 231.27157592773438,19.99968910217285 231.27157592773438,13.864689826965332 C231.27157592773438,13.864689826965332 231.24423217773438,5.681591987609863 231.24423217773438,5.681591987609863 C231.24423217773438,-0.45340800285339355 226.27122497558594,-5.426407814025879 220.13723754882812,-5.426407814025879 C220.13723754882812,-5.426407814025879 -37.394676208496094,-4.947791576385498 -37.394676208496094,-4.947791576385498"/></g></g><g transform="matrix(0.7071067690849304,-0.7071067690849304,0.7071067690849304,0.7071067690849304,211.443603515625,204.69808959960938)" opacity="1" style="display: block;"><g opacity="1" transform="matrix(1,0,0,1,0,0)"><path class="primary" fill="rgb(197,156,244)" fill-opacity="1" d=" M-36.78499984741211,61.933998107910156 C-36.78499984741211,61.933998107910156 111.38600158691406,61.63100051879883 111.38600158691406,61.63100051879883 C111.38600158691406,61.63100051879883 111.38600158691406,90.66699981689453 111.38600158691406,90.66699981689453 C111.38600158691406,90.66699981689453 142.80299377441406,90.66699981689453 142.80299377441406,90.66699981689453 C142.80299377441406,90.66699981689453 142.80299377441406,72.625 142.80299377441406,72.625 C142.80299377441406,72.625 174.22000122070312,72.625 174.22000122070312,72.625 C174.22000122070312,72.625 174.22000122070312,90.66699981689453 174.22000122070312,90.66699981689453 C174.22000122070312,90.66699981689453 205.63600158691406,90.66600036621094 205.63600158691406,90.66600036621094 C205.63600158691406,90.66600036621094 205.63600158691406,61.63100051879883 205.63600158691406,61.63100051879883 C205.63600158691406,61.63100051879883 218.60699462890625,61.558998107910156 218.60699462890625,61.558998107910156 C224.74200439453125,61.558998107910156 229.71400451660156,56.58599853515625 229.71400451660156,50.45100021362305 C229.71400451660156,50.45100021362305 231.12899780273438,-0.17499999701976776 231.12899780273438,-0.17499999701976776 C231.12899780273438,-6.309999942779541 226.15499877929688,-11.282999992370605 220.02099609375,-11.282999992370605 C220.02099609375,-11.282999992370605 -35.37099838256836,-10.907999992370605 -35.37099838256836,-10.907999992370605"/></g></g><g transform="matrix(0.7071067690849304,-0.7071067690849304,-0.7071067690849304,-0.7071067690849304,221.54391479492188,216.44540405273438)" opacity="1" style="display: none;"><g opacity="1" transform="matrix(1,0,0,1,0,0)"><path class="primary" fill="rgb(197,156,244)" fill-opacity="1" d=" M-37.61519241333008,20.990934371948242 C-37.61519241333008,20.990934371948242 112.935302734375,20.50080108642578 112.935302734375,20.50080108642578 C112.935302734375,20.50080108642578 112.935302734375,20.52718734741211 112.935302734375,20.52718734741211 C112.935302734375,20.52718734741211 144.3459014892578,20.5274715423584 144.3459014892578,20.5274715423584 C144.3459014892578,20.5274715423584 144.3459014892578,20.510940551757812 144.3459014892578,20.510940551757812 C144.3459014892578,20.510940551757812 175.76930236816406,20.51065444946289 175.76930236816406,20.51065444946289 C175.76930236816406,20.51065444946289 175.76930236816406,20.52718734741211 175.76930236816406,20.52718734741211 C175.76930236816406,20.52718734741211 207.17889404296875,20.5274715423584 207.17889404296875,20.5274715423584 C207.17889404296875,20.5274715423584 207.17889404296875,20.50108528137207 207.17889404296875,20.50108528137207 C207.17889404296875,20.50108528137207 220.14990234375,20.501028060913086 220.14990234375,20.501028060913086 C226.28489685058594,20.501028060913086 231.1320037841797,16.5272216796875 231.1320037841797,10.39222240447998 C231.1320037841797,10.39222240447998 231.25689697265625,6.319764137268066 231.25689697265625,6.319764137268066 C231.25689697265625,0.18476422131061554 226.2838897705078,-4.788235664367676 220.14990234375,-4.788235664367676 C220.14990234375,-4.788235664367676 -37.61519241333008,-4.298328399658203 -37.61519241333008,-4.298328399658203"/></g></g></g></g><clipPath id="__lottie_element_66"><path d="M0,0 L430,0 L430,430 L0,430z"/></clipPath><clipPath id="__lottie_element_76"><path d="M0,0 L430,0 L430,430 L0,430z"/></clipPath><clipPath id="__lottie_element_80"><path d="M0,0 L430,0 L430,430 L0,430z"/></clipPath><g id="__lottie_element_83"><g clip-path="url(#__lottie_element_84)" transform="matrix(1,0,0,1,2.75,9.5)" opacity="1" style="display: block;"><g transform="matrix(0.7071067690849304,-0.7071067690849304,0.7071067690849304,0.7071067690849304,211.443603515625,204.69808959960938)" opacity="1" style="display: none;"><path class="primary" fill="rgb(197,156,244)" fill-opacity="1" d=" M-76.5384292602539,-7.689742565155029 C-76.5384292602539,-7.689742565155029 -75.06290435791016,-1.3583258390426636 -75.15001678466797,7.199561595916748 C-75.23401641845703,15.5913724899292 -76.49788665771484,22.498172760009766 -76.49788665771484,22.498172760009766 C-76.49788665771484,22.498172760009766 -47.86735534667969,22.39715576171875 -47.86735534667969,22.39715576171875 C-40.94435501098633,22.39715576171875 -35.331356048583984,16.7840576171875 -35.331356048583984,9.86105728149414 C-35.331356048583984,9.86105728149414 -35.331356048583984,9.86105728149414 -35.331356048583984,9.86105728149414 C-35.331356048583984,9.86105728149414 -35.37099838256836,5.063199520111084 -35.37099838256836,5.063199520111084 C-35.37099838256836,5.063199520111084 -35.37099838256836,5.063199520111084 -35.37099838256836,5.063199520111084 C-35.37099838256836,-1.8598006963729858 -40.98400115966797,-7.4728007316589355 -47.90700149536133,-7.4728007316589355 C-47.90700149536133,-7.4728007316589355 -76.5384292602539,-7.689742565155029 -76.5384292602539,-7.689742565155029z"/><g opacity="1" transform="matrix(1,0,0,1,0,0)"/></g><g transform="matrix(0.7071067690849304,-0.7071067690849304,0.7071067690849304,0.7071067690849304,211.443603515625,204.69808959960938)" opacity="1" style="display: block;"><path class="primary" fill="rgb(197,156,244)" fill-opacity="1" d=" M-83.70600128173828,-30.30699920654297 C-83.70600128173828,-30.30699920654297 -74.43399810791016,-19.19300079345703 -74.51300048828125,7.677999973297119 C-74.59700012207031,36.138999938964844 -83.70600128173828,44.20000076293945 -83.70600128173828,44.20000076293945 C-83.70600128173828,44.20000076293945 -47.90700149536133,44.736000061035156 -47.90700149536133,44.736000061035156 C-40.98400115966797,44.736000061035156 -35.37099838256836,39.12200164794922 -35.37099838256836,32.19900131225586 C-35.37099838256836,32.19900131225586 -35.37099838256836,32.19900131225586 -35.37099838256836,32.19900131225586 C-35.37099838256836,32.19900131225586 -35.37099838256836,-17.236000061035156 -35.37099838256836,-17.236000061035156 C-35.37099838256836,-17.236000061035156 -35.37099838256836,-17.236000061035156 -35.37099838256836,-17.236000061035156 C-35.37099838256836,-24.159000396728516 -40.98400115966797,-29.77199935913086 -47.90700149536133,-29.77199935913086 C-47.90700149536133,-29.77199935913086 -83.70600128173828,-30.30699920654297 -83.70600128173828,-30.30699920654297z"/><g opacity="1" transform="matrix(1,0,0,1,0,0)"/></g><g transform="matrix(0.7071067690849304,-0.7071067690849304,-0.7071067690849304,-0.7071067690849304,221.54391479492188,216.44540405273438)" opacity="1" style="display: none;"><path class="primary" fill="rgb(197,156,244)" fill-opacity="1" d=" M-75.75740814208984,-5.2252197265625 C-75.75740814208984,-5.2252197265625 -75.13143920898438,0.5850558280944824 -75.21942901611328,7.147427558898926 C-75.30342864990234,13.35236930847168 -75.71244049072266,20.13340187072754 -75.71244049072266,20.13340187072754 C-75.71244049072266,20.13340187072754 -47.863037109375,19.962970733642578 -47.863037109375,19.962970733642578 C-40.94003677368164,19.962970733642578 -35.32703399658203,14.349969863891602 -35.32703399658203,7.4269700050354 C-35.32703399658203,7.4269700050354 -35.32703399658203,7.4269700050354 -35.32703399658203,7.4269700050354 C-35.32703399658203,7.4269700050354 -35.37099838256836,7.4930644035339355 -35.37099838256836,7.4930644035339355 C-35.37099838256836,7.4930644035339355 -35.37099838256836,7.4930644035339355 -35.37099838256836,7.4930644035339355 C-35.37099838256836,0.5700645446777344 -40.98400115966797,-5.042935371398926 -47.90700149536133,-5.042935371398926 C-47.90700149536133,-5.042935371398926 -75.75740814208984,-5.2252197265625 -75.75740814208984,-5.2252197265625z"/><g opacity="1" transform="matrix(1,0,0,1,0,0)"/></g></g></g><clipPath id="__lottie_element_84"><path d="M0,0 L430,0 L430,430 L0,430z"/></clipPath><clipPath id="__lottie_element_88"><path d="M0,0 L430,0 L430,430 L0,430z"/></clipPath><clipPath id="__lottie_element_92"><path d="M0,0 L430,0 L430,430 L0,430z"/></clipPath><g id="__lottie_element_95"><g clip-path="url(#__lottie_element_96)" transform="matrix(1,0,0,1,2.75,9.5)" opacity="1" style="display: block;"><g transform="matrix(0.7071067690849304,-0.7071067690849304,0.7071067690849304,0.7071067690849304,211.443603515625,204.69808959960938)" opacity="1" style="display: none;"><g opacity="1" transform="matrix(1,0,0,1,0,0)"><path class="primary" fill="rgb(197,156,244)" fill-opacity="1" d=" M-68.97676849365234,-3.6702687740325928 C-68.97676849365234,0.5815958380699158 -102.98587036132812,4.027393817901611 -144.93887329101562,4.027393817901611 C-186.89187622070312,4.027393817901611 -220.9017791748047,0.5815958380699158 -220.9017791748047,-3.6702687740325928 C-220.9017791748047,-7.922133445739746 -186.89187622070312,-11.368733406066895 -144.93887329101562,-11.368733406066895 C-102.98587036132812,-11.368733406066895 -68.97676849365234,-7.922133445739746 -68.97676849365234,-3.6702687740325928z"/></g></g><g transform="matrix(0.7071067690849304,-0.7071067690849304,0.7071067690849304,0.7071067690849304,211.443603515625,204.69808959960938)" opacity="1" style="display: block;"><g opacity="1" transform="matrix(1,0,0,1,0,0)"><path class="primary" fill="rgb(197,156,244)" fill-opacity="1" d=" M-69.00199890136719,7.142000198364258 C-69.00199890136719,-34.59199905395508 -103.01200103759766,-68.42500305175781 -144.96499633789062,-68.42500305175781 C-186.91799926757812,-68.42500305175781 -220.927001953125,-34.59199905395508 -220.927001953125,7.142000198364258 C-220.927001953125,48.875999450683594 -186.91799926757812,82.70800018310547 -144.96499633789062,82.70800018310547 C-103.01200103759766,82.70800018310547 -69.00199890136719,48.875999450683594 -69.00199890136719,7.142000198364258z"/></g></g><g transform="matrix(0.7071067690849304,-0.7071067690849304,-0.7071067690849304,-0.7071067690849304,221.54391479492188,216.44540405273438)" opacity="1" style="display: none;"><g opacity="1" transform="matrix(1,0,0,1,0,0)"><path class="primary" fill="rgb(197,156,244)" fill-opacity="1" d=" M-68.87310028076172,20.131528854370117 C-68.87310028076172,20.207822799682617 -102.8821029663086,20.26849937438965 -144.83509826660156,20.26849937438965 C-186.78810119628906,20.26849937438965 -220.79811096191406,20.207822799682617 -220.79811096191406,20.131528854370117 C-220.79811096191406,20.055234909057617 -186.78810119628906,19.99355697631836 -144.83509826660156,19.99355697631836 C-102.8821029663086,19.99355697631836 -68.87310028076172,20.055234909057617 -68.87310028076172,20.131528854370117z"/></g></g></g></g><clipPath id="__lottie_element_96"><path d="M0,0 L430,0 L430,430 L0,430z"/></clipPath><filter id="__lottie_element_102" filterUnits="objectBoundingBox" x="0%" y="0%" width="100%" height="100%"><feComponentTransfer in="SourceGraphic"><feFuncA type="table" tableValues="1.0 0.0"/></feComponentTransfer></filter><mask id="__lottie_element_95_2" mask-type="alpha"><g filter="url(#__lottie_element_102)"><rect width="430" height="430" x="0" y="0" fill="#ffffff" opacity="0"/><use xmlns:ns1="http://www.w3.org/1999/xlink" ns1:href="#__lottie_element_95"/></g></mask><filter id="__lottie_element_103" filterUnits="objectBoundingBox" x="0%" y="0%" width="100%" height="100%"><feComponentTransfer in="SourceGraphic"><feFuncA type="table" tableValues="1.0 0.0"/></feComponentTransfer></filter><mask id="__lottie_element_83_2" mask-type="alpha"><g filter="url(#__lottie_element_103)"><rect width="430" height="430" x="0" y="0" fill="#ffffff" opacity="0"/><use xmlns:ns2="http://www.w3.org/1999/xlink" ns2:href="#__lottie_element_83"/></g></mask><filter id="__lottie_element_104" filterUnits="objectBoundingBox" x="0%" y="0%" width="100%" height="100%"><feComponentTransfer in="SourceGraphic"><feFuncA type="table" tableValues="1.0 0.0"/></feComponentTransfer></filter><mask id="__lottie_element_65_2" mask-type="alpha"><g filter="url(#__lottie_element_104)"><rect width="430" height="430" x="0" y="0" fill="#ffffff" opacity="0"/><use xmlns:ns3="http://www.w3.org/1999/xlink" ns3:href="#__lottie_element_65"/></g></mask></defs><g clip-path="url(#__lottie_element_51)"><g clip-path="url(#__lottie_element_53)" transform="matrix(1,0,0,1,0,0)" opacity="1" style="display: block;"><g clip-path="url(#__lottie_element_58)" transform="matrix(1,0,0,1,0,0)" opacity="1" style="display: block;"><g transform="matrix(0.7071067690849304,-0.7071067690849304,0.7071067690849304,0.7071067690849304,211.443603515625,204.69808959960938)" opacity="1" style="display: none;"><g opacity="1" transform="matrix(1,0,0,1,0,0)"><path class="primary" fill="rgb(197,156,244)" fill-opacity="1" d=" M-58.73789978027344,21.788604736328125 C-58.73789978027344,21.788604736328125 112.91632843017578,20.999055862426758 112.91632843017578,20.999055862426758 C112.91632843017578,20.999055862426758 112.91632843017578,23.875812530517578 112.91632843017578,23.875812530517578 C112.91632843017578,23.875812530517578 144.33323669433594,23.875812530517578 144.33323669433594,23.875812530517578 C144.33323669433594,23.875812530517578 144.33323669433594,22.088207244873047 144.33323669433594,22.088207244873047 C144.33323669433594,22.088207244873047 175.75022888183594,22.088207244873047 175.75022888183594,22.088207244873047 C175.75022888183594,22.088207244873047 175.75022888183594,23.875812530517578 175.75022888183594,23.875812530517578 C175.75022888183594,23.875812530517578 207.1663360595703,23.875812530517578 207.1663360595703,23.875812530517578 C207.1663360595703,23.875812530517578 207.1663360595703,20.999055862426758 207.1663360595703,20.999055862426758 C207.1663360595703,20.999055862426758 220.13633728027344,20.99193000793457 220.13633728027344,20.99193000793457 C226.27133178710938,20.99193000793457 231.13070678710938,16.91994285583496 231.13070678710938,10.784943580627441 C231.13070678710938,10.784943580627441 231.24423217773438,5.681591987609863 231.24423217773438,5.681591987609863 C231.24423217773438,-0.45340800285339355 226.2704315185547,-5.426407814025879 220.13633728027344,-5.426407814025879 C220.13633728027344,-5.426407814025879 -58.73789978027344,-4.6288323402404785 -58.73789978027344,-4.6288323402404785"/></g></g><g transform="matrix(0.7071067690849304,-0.7071067690849304,0.7071067690849304,0.7071067690849304,211.443603515625,204.69808959960938)" opacity="1" style="display: block;"><g opacity="1" transform="matrix(1,0,0,1,0,0)"><path class="primary" fill="rgb(197,156,244)" fill-opacity="1" d=" M-35.37099838256836,25.871999740600586 C-35.37099838256836,25.871999740600586 112.8010025024414,25.569000244140625 112.8010025024414,25.569000244140625 C112.8010025024414,25.569000244140625 112.8010025024414,54.604000091552734 112.8010025024414,54.604000091552734 C112.8010025024414,54.604000091552734 144.2169952392578,54.604000091552734 144.2169952392578,54.604000091552734 C144.2169952392578,54.604000091552734 144.2169952392578,36.5629997253418 144.2169952392578,36.5629997253418 C144.2169952392578,36.5629997253418 175.63400268554688,36.5629997253418 175.63400268554688,36.5629997253418 C175.63400268554688,36.5629997253418 175.63400268554688,54.604000091552734 175.63400268554688,54.604000091552734 C175.63400268554688,54.604000091552734 207.05099487304688,54.604000091552734 207.05099487304688,54.604000091552734 C207.05099487304688,54.604000091552734 207.05099487304688,25.569000244140625 207.05099487304688,25.569000244140625 C207.05099487304688,25.569000244140625 220.02099609375,25.496999740600586 220.02099609375,25.496999740600586 C226.156005859375,25.496999740600586 231.1280059814453,20.52400016784668 231.1280059814453,14.388999938964844 C231.1280059814453,14.388999938964844 231.1280059814453,-0.17499999701976776 231.1280059814453,-0.17499999701976776 C231.1280059814453,-6.309999942779541 226.156005859375,-11.282999992370605 220.02099609375,-11.282999992370605 C220.02099609375,-11.282999992370605 -35.37099838256836,-10.907999992370605 -35.37099838256836,-10.907999992370605"/></g></g><g transform="matrix(0.7071067690849304,-0.7071067690849304,-0.7071067690849304,-0.7071067690849304,221.54391479492188,216.44540405273438)" opacity="1" style="display: none;"><g opacity="1" transform="matrix(1,0,0,1,0,0)"><path class="primary" fill="rgb(197,156,244)" fill-opacity="1" d=" M-61.28411102294922,21.343650817871094 C-61.28411102294922,21.343650817871094 112.92889404296875,20.50108528137207 112.92889404296875,20.50108528137207 C112.92889404296875,20.50108528137207 112.92889404296875,20.5274715423584 112.92889404296875,20.5274715423584 C112.92889404296875,20.5274715423584 144.3459014892578,20.5274715423584 144.3459014892578,20.5274715423584 C144.3459014892578,20.5274715423584 144.3459014892578,20.510940551757812 144.3459014892578,20.510940551757812 C144.3459014892578,20.510940551757812 175.7628936767578,20.510940551757812 175.7628936767578,20.510940551757812 C175.7628936767578,20.510940551757812 175.7628936767578,20.5274715423584 175.7628936767578,20.5274715423584 C175.7628936767578,20.5274715423584 207.17889404296875,20.5274715423584 207.17889404296875,20.5274715423584 C207.17889404296875,20.5274715423584 207.17889404296875,20.50108528137207 207.17889404296875,20.50108528137207 C207.17889404296875,20.50108528137207 220.14889526367188,20.501028060913086 220.14889526367188,20.501028060913086 C226.2838897705078,20.501028060913086 231.13099670410156,16.5272216796875 231.13099670410156,10.39222240447998 C231.13099670410156,10.39222240447998 231.25689697265625,6.319764137268066 231.25689697265625,6.319764137268066 C231.25689697265625,0.18476422131061554 226.28289794921875,-4.788235664367676 220.14889526367188,-4.788235664367676 C220.14889526367188,-4.788235664367676 -61.28411102294922,-3.944613456726074 -61.28411102294922,-3.944613456726074"/></g></g></g><g mask="url(#__lottie_element_65_2)" style="mix-blend-mode: multiply; display: block;"><g clip-path="url(#__lottie_element_62)" transform="matrix(1,0,0,1,0,0)" opacity="0.5"><g transform="matrix(0.7071067690849304,-0.7071067690849304,0.7071067690849304,0.7071067690849304,211.443603515625,204.69808959960938)" opacity="1" style="display: none;"><g opacity="1" transform="matrix(1,0,0,1,0,0)"><path class="primary" fill="rgb(197,156,244)" fill-opacity="1" d=" M-58.73789978027344,21.788604736328125 C-58.73789978027344,21.788604736328125 112.91632843017578,20.999055862426758 112.91632843017578,20.999055862426758 C112.91632843017578,20.999055862426758 112.91632843017578,23.875812530517578 112.91632843017578,23.875812530517578 C112.91632843017578,23.875812530517578 144.33323669433594,23.875812530517578 144.33323669433594,23.875812530517578 C144.33323669433594,23.875812530517578 144.33323669433594,22.088207244873047 144.33323669433594,22.088207244873047 C144.33323669433594,22.088207244873047 175.75022888183594,22.088207244873047 175.75022888183594,22.088207244873047 C175.75022888183594,22.088207244873047 175.75022888183594,23.875812530517578 175.75022888183594,23.875812530517578 C175.75022888183594,23.875812530517578 207.1663360595703,23.875812530517578 207.1663360595703,23.875812530517578 C207.1663360595703,23.875812530517578 207.1663360595703,20.999055862426758 207.1663360595703,20.999055862426758 C207.1663360595703,20.999055862426758 220.13633728027344,20.99193000793457 220.13633728027344,20.99193000793457 C226.27133178710938,20.99193000793457 231.13070678710938,16.91994285583496 231.13070678710938,10.784943580627441 C231.13070678710938,10.784943580627441 231.24423217773438,5.681591987609863 231.24423217773438,5.681591987609863 C231.24423217773438,-0.45340800285339355 226.2704315185547,-5.426407814025879 220.13633728027344,-5.426407814025879 C220.13633728027344,-5.426407814025879 -58.73789978027344,-4.6288323402404785 -58.73789978027344,-4.6288323402404785"/></g></g><g transform="matrix(0.7071067690849304,-0.7071067690849304,0.7071067690849304,0.7071067690849304,211.443603515625,204.69808959960938)" opacity="1" style="display: block;"><g opacity="1" transform="matrix(1,0,0,1,0,0)"><path class="primary" fill="rgb(197,156,244)" fill-opacity="1" d=" M-35.37099838256836,25.871999740600586 C-35.37099838256836,25.871999740600586 112.8010025024414,25.569000244140625 112.8010025024414,25.569000244140625 C112.8010025024414,25.569000244140625 112.8010025024414,54.604000091552734 112.8010025024414,54.604000091552734 C112.8010025024414,54.604000091552734 144.2169952392578,54.604000091552734 144.2169952392578,54.604000091552734 C144.2169952392578,54.604000091552734 144.2169952392578,36.5629997253418 144.2169952392578,36.5629997253418 C144.2169952392578,36.5629997253418 175.63400268554688,36.5629997253418 175.63400268554688,36.5629997253418 C175.63400268554688,36.5629997253418 175.63400268554688,54.604000091552734 175.63400268554688,54.604000091552734 C175.63400268554688,54.604000091552734 207.05099487304688,54.604000091552734 207.05099487304688,54.604000091552734 C207.05099487304688,54.604000091552734 207.05099487304688,25.569000244140625 207.05099487304688,25.569000244140625 C207.05099487304688,25.569000244140625 220.02099609375,25.496999740600586 220.02099609375,25.496999740600586 C226.156005859375,25.496999740600586 231.1280059814453,20.52400016784668 231.1280059814453,14.388999938964844 C231.1280059814453,14.388999938964844 231.1280059814453,-0.17499999701976776 231.1280059814453,-0.17499999701976776 C231.1280059814453,-6.309999942779541 226.156005859375,-11.282999992370605 220.02099609375,-11.282999992370605 C220.02099609375,-11.282999992370605 -35.37099838256836,-10.907999992370605 -35.37099838256836,-10.907999992370605"/></g></g><g transform="matrix(0.7071067690849304,-0.7071067690849304,-0.7071067690849304,-0.7071067690849304,221.54391479492188,216.44540405273438)" opacity="1" style="display: none;"><g opacity="1" transform="matrix(1,0,0,1,0,0)"><path class="primary" fill="rgb(197,156,244)" fill-opacity="1" d=" M-61.28411102294922,21.343650817871094 C-61.28411102294922,21.343650817871094 112.92889404296875,20.50108528137207 112.92889404296875,20.50108528137207 C112.92889404296875,20.50108528137207 112.92889404296875,20.5274715423584 112.92889404296875,20.5274715423584 C112.92889404296875,20.5274715423584 144.3459014892578,20.5274715423584 144.3459014892578,20.5274715423584 C144.3459014892578,20.5274715423584 144.3459014892578,20.510940551757812 144.3459014892578,20.510940551757812 C144.3459014892578,20.510940551757812 175.7628936767578,20.510940551757812 175.7628936767578,20.510940551757812 C175.7628936767578,20.510940551757812 175.7628936767578,20.5274715423584 175.7628936767578,20.5274715423584 C175.7628936767578,20.5274715423584 207.17889404296875,20.5274715423584 207.17889404296875,20.5274715423584 C207.17889404296875,20.5274715423584 207.17889404296875,20.50108528137207 207.17889404296875,20.50108528137207 C207.17889404296875,20.50108528137207 220.14889526367188,20.501028060913086 220.14889526367188,20.501028060913086 C226.2838897705078,20.501028060913086 231.13099670410156,16.5272216796875 231.13099670410156,10.39222240447998 C231.13099670410156,10.39222240447998 231.25689697265625,6.319764137268066 231.25689697265625,6.319764137268066 C231.25689697265625,0.18476422131061554 226.28289794921875,-4.788235664367676 220.14889526367188,-4.788235664367676 C220.14889526367188,-4.788235664367676 -61.28411102294922,-3.944613456726074 -61.28411102294922,-3.944613456726074"/></g></g></g></g><g transform="matrix(0.7071067690849304,-0.7071067690849304,0.7071067690849304,0.7071067690849304,211.443603515625,204.69808959960938)" opacity="1" style="display: none;"><g opacity="1" transform="matrix(1,0,0,1,0,0)"><path stroke-linecap="butt" stroke-linejoin="miter" fill-opacity="0" stroke-miterlimit="4" class="primary" stroke="rgb(197,156,244)" stroke-opacity="1" stroke-width="2" d="M0 0"/></g><path class="primary" fill="rgb(197,156,244)" fill-opacity="1" d=" M-68.88577270507812,18.855085372924805 C-68.88577270507812,23.106948852539062 -102.89486694335938,26.55274772644043 -144.84786987304688,26.55274772644043 C-186.80087280273438,26.55274772644043 -220.81077575683594,23.106948852539062 -220.81077575683594,18.855085372924805 C-220.81077575683594,14.603219985961914 -186.80087280273438,11.156620979309082 -144.84786987304688,11.156620979309082 C-102.89486694335938,11.156620979309082 -68.88577270507812,14.603219985961914 -68.88577270507812,18.855085372924805z M-99.60486602783203,18.85518455505371 C-99.60486602783203,16.323259353637695 -119.86087036132812,14.269447326660156 -144.84786987304688,14.269447326660156 C-169.83486938476562,14.269447326660156 -190.09176635742188,16.32316017150879 -190.09176635742188,18.855085372924805 C-190.09176635742188,21.38701057434082 -169.83486938476562,23.43992042541504 -144.84786987304688,23.43992042541504 C-119.86087036132812,23.43992042541504 -99.60486602783203,21.387109756469727 -99.60486602783203,18.85518455505371z"/><path class="primary" fill="rgb(197,156,244)" fill-opacity="0.5" d=" M-68.88577270507812,18.855085372924805 C-68.88577270507812,23.106948852539062 -102.89486694335938,26.55274772644043 -144.84786987304688,26.55274772644043 C-186.80087280273438,26.55274772644043 -220.81077575683594,23.106948852539062 -220.81077575683594,18.855085372924805 C-220.81077575683594,14.603219985961914 -186.80087280273438,11.156620979309082 -144.84786987304688,11.156620979309082 C-102.89486694335938,11.156620979309082 -68.88577270507812,14.603219985961914 -68.88577270507812,18.855085372924805z M-99.60486602783203,18.85518455505371 C-99.60486602783203,16.323259353637695 -119.86087036132812,14.269447326660156 -144.84786987304688,14.269447326660156 C-169.83486938476562,14.269447326660156 -190.09176635742188,16.32316017150879 -190.09176635742188,18.855085372924805 C-190.09176635742188,21.38701057434082 -169.83486938476562,23.43992042541504 -144.84786987304688,23.43992042541504 C-119.86087036132812,23.43992042541504 -99.60486602783203,21.387109756469727 -99.60486602783203,18.85518455505371z" style="mix-blend-mode: multiply;"/><g opacity="1" transform="matrix(1,0,0,1,0,0)"/></g><g transform="matrix(0.7071067690849304,-0.7071067690849304,0.7071067690849304,0.7071067690849304,211.443603515625,204.69808959960938)" opacity="1" style="display: block;"><g opacity="1" transform="matrix(1,0,0,1,0,0)"><path stroke-linecap="butt" stroke-linejoin="miter" fill-opacity="0" stroke-miterlimit="4" class="primary" stroke="rgb(197,156,244)" stroke-opacity="1" stroke-width="2" d="M0 0"/></g><g opacity="1" transform="matrix(1,0,0,1,0,0)"><path class="primary" fill="rgb(197,156,244)" fill-opacity="1" d=" M-69.00199890136719,7.142000198364258 C-69.00199890136719,-34.59199905395508 -103.01200103759766,-68.42500305175781 -144.96499633789062,-68.42500305175781 C-186.91799926757812,-68.42500305175781 -220.927001953125,-34.59199905395508 -220.927001953125,7.142000198364258 C-220.927001953125,48.875999450683594 -186.91799926757812,82.70800018310547 -144.96499633789062,82.70800018310547 C-103.01200103759766,82.70800018310547 -69.00199890136719,48.875999450683594 -69.00199890136719,7.142000198364258z M-99.72200012207031,7.142000198364258 C-99.72200012207031,31.999000549316406 -119.97799682617188,52.14799880981445 -144.96499633789062,52.14799880981445 C-169.95199584960938,52.14799880981445 -190.20799255371094,31.999000549316406 -190.20799255371094,7.142000198364258 C-190.20799255371094,-17.71500015258789 -169.95199584960938,-37.8650016784668 -144.96499633789062,-37.8650016784668 C-119.97799682617188,-37.8650016784668 -99.72200012207031,-17.71500015258789 -99.72200012207031,7.142000198364258z"/><path class="primary" fill="rgb(197,156,244)" fill-opacity="0.5" d=" M-69.00199890136719,7.142000198364258 C-69.00199890136719,-34.59199905395508 -103.01200103759766,-68.42500305175781 -144.96499633789062,-68.42500305175781 C-186.91799926757812,-68.42500305175781 -220.927001953125,-34.59199905395508 -220.927001953125,7.142000198364258 C-220.927001953125,48.875999450683594 -186.91799926757812,82.70800018310547 -144.96499633789062,82.70800018310547 C-103.01200103759766,82.70800018310547 -69.00199890136719,48.875999450683594 -69.00199890136719,7.142000198364258z M-99.72200012207031,7.142000198364258 C-99.72200012207031,31.999000549316406 -119.97799682617188,52.14799880981445 -144.96499633789062,52.14799880981445 C-169.95199584960938,52.14799880981445 -190.20799255371094,31.999000549316406 -190.20799255371094,7.142000198364258 C-190.20799255371094,-17.71500015258789 -169.95199584960938,-37.8650016784668 -144.96499633789062,-37.8650016784668 C-119.97799682617188,-37.8650016784668 -99.72200012207031,-17.71500015258789 -99.72200012207031,7.142000198364258z" style="mix-blend-mode: multiply;"/></g></g><g transform="matrix(0.7071067690849304,-0.7071067690849304,-0.7071067690849304,-0.7071067690849304,221.54391479492188,216.44540405273438)" opacity="1" style="display: none;"><g opacity="1" transform="matrix(1,0,0,1,0,0)"><path stroke-linecap="butt" stroke-linejoin="miter" fill-opacity="0" stroke-miterlimit="4" class="primary" stroke="rgb(197,156,244)" stroke-opacity="1" stroke-width="2" d="M0 0"/></g><g opacity="1" transform="matrix(1,0,0,1,0,0)"><path class="primary" fill="rgb(197,156,244)" fill-opacity="1" d=" M-68.9740219116211,-4.848333835601807 C-68.9740219116211,-4.772039413452148 -102.98302459716797,-4.711362838745117 -144.93601989746094,-4.711362838745117 C-186.88902282714844,-4.711362838745117 -220.89901733398438,-4.772039413452148 -220.89901733398438,-4.848333835601807 C-220.89901733398438,-4.924628257751465 -186.88902282714844,-4.986304759979248 -144.93601989746094,-4.986304759979248 C-102.98302459716797,-4.986304759979248 -68.9740219116211,-4.924628257751465 -68.9740219116211,-4.848333835601807z M-99.69302368164062,-4.848333835601807 C-99.69302368164062,-4.893259048461914 -119.94902038574219,-4.930985450744629 -144.93601989746094,-4.930985450744629 C-169.9230194091797,-4.930985450744629 -190.17901611328125,-4.893259048461914 -190.17901611328125,-4.848333835601807 C-190.17901611328125,-4.803408622741699 -169.9230194091797,-4.766682147979736 -144.93601989746094,-4.766682147979736 C-119.94902038574219,-4.766682147979736 -99.69302368164062,-4.803408622741699 -99.69302368164062,-4.848333835601807z"/><path class="primary" fill="rgb(197,156,244)" fill-opacity="0.5" d=" M-68.9740219116211,-4.848333835601807 C-68.9740219116211,-4.772039413452148 -102.98302459716797,-4.711362838745117 -144.93601989746094,-4.711362838745117 C-186.88902282714844,-4.711362838745117 -220.89901733398438,-4.772039413452148 -220.89901733398438,-4.848333835601807 C-220.89901733398438,-4.924628257751465 -186.88902282714844,-4.986304759979248 -144.93601989746094,-4.986304759979248 C-102.98302459716797,-4.986304759979248 -68.9740219116211,-4.924628257751465 -68.9740219116211,-4.848333835601807z M-99.69302368164062,-4.848333835601807 C-99.69302368164062,-4.893259048461914 -119.94902038574219,-4.930985450744629 -144.93601989746094,-4.930985450744629 C-169.9230194091797,-4.930985450744629 -190.17901611328125,-4.893259048461914 -190.17901611328125,-4.848333835601807 C-190.17901611328125,-4.803408622741699 -169.9230194091797,-4.766682147979736 -144.93601989746094,-4.766682147979736 C-119.94902038574219,-4.766682147979736 -99.69302368164062,-4.803408622741699 -99.69302368164062,-4.848333835601807z" style="mix-blend-mode: multiply;"/></g></g><g transform="matrix(1,0,0,1,215,215)" opacity="1" style="display: none;"><g opacity="1" transform="matrix(1,0,0,1,0,0)"><path stroke-linecap="butt" stroke-linejoin="miter" fill-opacity="0" stroke-miterlimit="4" class="primary" stroke="rgb(197,156,244)" stroke-opacity="1" stroke-width="2" d="M0 0"/></g><g opacity="1" transform="matrix(1,0,0,1,0,0)"><path class="primary" fill="rgb(197,156,244)" fill-opacity="1" d=" M-52.247230529785156,34.063194274902344 C-54.18443298339844,33.03876876831055 -92.6287841796875,66.60092163085938 -113.34500885009766,87.1541519165039 C-132.8276824951172,106.40155029296875 -162.12344360351562,142.34805297851562 -161.34280395507812,143.37326049804688 C-161.33843994140625,143.3790283203125 -145.81930541992188,158.46157836914062 -145.8236541748047,158.45582580566406 C-146.60525512695312,157.41970825195312 -117.02677917480469,121.62088012695312 -97.3290786743164,102.37242126464844 C-76.37640380859375,81.83174133300781 -37.674293518066406,48.928627014160156 -36.05327224731445,49.821868896484375 C-36.048736572265625,49.824310302734375 -52.24269485473633,34.065635681152344 -52.247230529785156,34.063194274902344z"/><path class="primary" fill="rgb(197,156,244)" fill-opacity="0.5" d=" M-52.247230529785156,34.063194274902344 C-54.18443298339844,33.03876876831055 -92.6287841796875,66.60092163085938 -113.34500885009766,87.1541519165039 C-132.8276824951172,106.40155029296875 -162.12344360351562,142.34805297851562 -161.34280395507812,143.37326049804688 C-161.33843994140625,143.3790283203125 -145.81930541992188,158.46157836914062 -145.8236541748047,158.45582580566406 C-146.60525512695312,157.41970825195312 -117.02677917480469,121.62088012695312 -97.3290786743164,102.37242126464844 C-76.37640380859375,81.83174133300781 -37.674293518066406,48.928627014160156 -36.05327224731445,49.821868896484375 C-36.048736572265625,49.824310302734375 -52.24269485473633,34.065635681152344 -52.247230529785156,34.063194274902344z" style="mix-blend-mode: multiply;"/></g></g><g transform="matrix(1,0,0,1,215,215)" opacity="1" style="display: none;"><g opacity="1" transform="matrix(1,0,0,1,0,0)"><path stroke-linecap="butt" stroke-linejoin="miter" fill-opacity="0" stroke-miterlimit="4" class="primary" stroke="rgb(197,156,244)" stroke-opacity="1" stroke-width="2" d="M0 0"/></g><g opacity="1" transform="matrix(1,0,0,1,0,0)"><path class="primary" fill="rgb(197,156,244)" fill-opacity="1" d=" M-49.60200119018555,39.957000732421875 C-71.81199645996094,28.211999893188477 -113.70299530029297,9.545008659362793 -151.78298950195312,43.45400619506836 C-195.22698974609375,82.13900756835938 -171.2639923095703,130.29299926757812 -162.31399536132812,142.0469970703125 C-162.2639923095703,142.11300659179688 -162.24200439453125,142.36199951171875 -162.2919921875,142.29600524902344 C-171.25299072265625,130.41700744628906 -195.333984375,82.3550033569336 -151.0989990234375,42.85200881958008 C-111.24999237060547,7.266011714935303 -68.27699279785156,29.868003845214844 -49.69199752807617,40.10900115966797 C-49.63999938964844,40.137001037597656 -49.54999923706055,39.98500061035156 -49.60200119018555,39.957000732421875z"/><path class="primary" fill="rgb(197,156,244)" fill-opacity="0.5" d=" M-49.60200119018555,39.957000732421875 C-71.81199645996094,28.211999893188477 -113.70299530029297,9.545008659362793 -151.78298950195312,43.45400619506836 C-195.22698974609375,82.13900756835938 -171.2639923095703,130.29299926757812 -162.31399536132812,142.0469970703125 C-162.2639923095703,142.11300659179688 -162.24200439453125,142.36199951171875 -162.2919921875,142.29600524902344 C-171.25299072265625,130.41700744628906 -195.333984375,82.3550033569336 -151.0989990234375,42.85200881958008 C-111.24999237060547,7.266011714935303 -68.27699279785156,29.868003845214844 -49.69199752807617,40.10900115966797 C-49.63999938964844,40.137001037597656 -49.54999923706055,39.98500061035156 -49.60200119018555,39.957000732421875z" style="mix-blend-mode: multiply;"/></g></g><g transform="matrix(1,0,0,1,215,215)" opacity="1" style="display: none;"><g opacity="1" transform="matrix(1,0,0,1,0,0)"><path stroke-linecap="butt" stroke-linejoin="miter" fill-opacity="0" stroke-miterlimit="4" class="primary" stroke="rgb(197,156,244)" stroke-opacity="1" stroke-width="2" d="M0 0"/></g><g opacity="1" transform="matrix(1,0,0,1,0,0)"><path class="primary" fill="rgb(197,156,244)" fill-opacity="1" d=" M-52.4954948425293,33.51004409790039 C-52.53003692626953,33.49177932739258 -90.6509017944336,71.95579528808594 -109.73748779296875,91.25554656982422 C-126.9713134765625,108.67866516113281 -161.26182556152344,143.4892120361328 -161.24790954589844,143.5074920654297 C-161.24783325195312,143.50758361816406 -144.2682342529297,159.99057006835938 -144.268310546875,159.99046325683594 C-144.28224182128906,159.97198486328125 -109.66091918945312,125.32859802246094 -92.26611328125,107.98108673095703 C-73.08692169189453,88.85244750976562 -34.80213928222656,50.717529296875 -34.77323913574219,50.73345184326172 C-34.77315902709961,50.73349380493164 -52.49541091918945,33.51008605957031 -52.4954948425293,33.51004409790039z"/><path class="primary" fill="rgb(197,156,244)" fill-opacity="0.5" d=" M-52.4954948425293,33.51004409790039 C-52.53003692626953,33.49177932739258 -90.6509017944336,71.95579528808594 -109.73748779296875,91.25554656982422 C-126.9713134765625,108.67866516113281 -161.26182556152344,143.4892120361328 -161.24790954589844,143.5074920654297 C-161.24783325195312,143.50758361816406 -144.2682342529297,159.99057006835938 -144.268310546875,159.99046325683594 C-144.28224182128906,159.97198486328125 -109.66091918945312,125.32859802246094 -92.26611328125,107.98108673095703 C-73.08692169189453,88.85244750976562 -34.80213928222656,50.717529296875 -34.77323913574219,50.73345184326172 C-34.77315902709961,50.73349380493164 -52.49541091918945,33.51008605957031 -52.4954948425293,33.51004409790039z" style="mix-blend-mode: multiply;"/></g></g><g transform="matrix(1,0,0,1,215,215)" opacity="1" style="display: none;"><g opacity="1" transform="matrix(1,0,0,1,0,0)"><path stroke-linecap="butt" stroke-linejoin="miter" fill-opacity="0" stroke-miterlimit="4" class="primary" stroke="rgb(197,156,244)" stroke-opacity="1" stroke-width="2" d="M0 0"/></g><g opacity="1" transform="matrix(1,0,0,1,0,0)"><path class="primary" fill="rgb(197,156,244)" fill-opacity="1" d=" M-49.60200119018555,39.957000732421875 C-71.81199645996094,28.211999893188477 -113.7030029296875,9.545000076293945 -151.7830047607422,43.45399856567383 C-195.2270050048828,82.13899993896484 -171.26400756835938,130.29299926757812 -162.31399536132812,142.0469970703125 C-162.26400756835938,142.11300659179688 -162.24200439453125,142.36199951171875 -162.29200744628906,142.29600524902344 C-171.2530059814453,130.41700744628906 -195.33399963378906,82.3550033569336 -151.0989990234375,42.85200119018555 C-111.25,7.265999794006348 -68.2770004272461,29.868000030517578 -49.69200134277344,40.10900115966797 C-49.63999938964844,40.137001037597656 -49.54999923706055,39.98500061035156 -49.60200119018555,39.957000732421875z"/><path class="primary" fill="rgb(197,156,244)" fill-opacity="0.5" d=" M-49.60200119018555,39.957000732421875 C-71.81199645996094,28.211999893188477 -113.7030029296875,9.545000076293945 -151.7830047607422,43.45399856567383 C-195.2270050048828,82.13899993896484 -171.26400756835938,130.29299926757812 -162.31399536132812,142.0469970703125 C-162.26400756835938,142.11300659179688 -162.24200439453125,142.36199951171875 -162.29200744628906,142.29600524902344 C-171.2530059814453,130.41700744628906 -195.33399963378906,82.3550033569336 -151.0989990234375,42.85200119018555 C-111.25,7.265999794006348 -68.2770004272461,29.868000030517578 -49.69200134277344,40.10900115966797 C-49.63999938964844,40.137001037597656 -49.54999923706055,39.98500061035156 -49.60200119018555,39.957000732421875z" style="mix-blend-mode: multiply;"/></g></g><g clip-path="url(#__lottie_element_76)" transform="matrix(1,0,0,1,0,0)" opacity="1" style="display: block;"><g transform="matrix(0.7071067690849304,-0.7071067690849304,0.7071067690849304,0.7071067690849304,211.443603515625,204.69808959960938)" opacity="1" style="display: none;"><path class="primary" fill="rgb(197,156,244)" fill-opacity="1" d=" M-76.5384292602539,-7.689742565155029 C-76.5384292602539,-7.689742565155029 -75.06290435791016,-1.3583258390426636 -75.15001678466797,7.199561595916748 C-75.23401641845703,15.5913724899292 -76.49788665771484,22.498172760009766 -76.49788665771484,22.498172760009766 C-76.49788665771484,22.498172760009766 -47.86735534667969,22.39715576171875 -47.86735534667969,22.39715576171875 C-40.94435501098633,22.39715576171875 -35.331356048583984,16.7840576171875 -35.331356048583984,9.86105728149414 C-35.331356048583984,9.86105728149414 -35.331356048583984,9.86105728149414 -35.331356048583984,9.86105728149414 C-35.331356048583984,9.86105728149414 -35.37099838256836,5.063199520111084 -35.37099838256836,5.063199520111084 C-35.37099838256836,5.063199520111084 -35.37099838256836,5.063199520111084 -35.37099838256836,5.063199520111084 C-35.37099838256836,-1.8598006963729858 -40.98400115966797,-7.4728007316589355 -47.90700149536133,-7.4728007316589355 C-47.90700149536133,-7.4728007316589355 -76.5384292602539,-7.689742565155029 -76.5384292602539,-7.689742565155029z"/><g opacity="1" transform="matrix(1,0,0,1,0,0)"/></g><g transform="matrix(0.7071067690849304,-0.7071067690849304,0.7071067690849304,0.7071067690849304,211.443603515625,204.69808959960938)" opacity="1" style="display: block;"><path class="primary" fill="rgb(197,156,244)" fill-opacity="1" d=" M-83.70600128173828,-30.30699920654297 C-83.70600128173828,-30.30699920654297 -74.43399810791016,-19.19300079345703 -74.51300048828125,7.677999973297119 C-74.59700012207031,36.138999938964844 -83.70600128173828,44.20000076293945 -83.70600128173828,44.20000076293945 C-83.70600128173828,44.20000076293945 -47.90700149536133,44.736000061035156 -47.90700149536133,44.736000061035156 C-40.98400115966797,44.736000061035156 -35.37099838256836,39.12200164794922 -35.37099838256836,32.19900131225586 C-35.37099838256836,32.19900131225586 -35.37099838256836,32.19900131225586 -35.37099838256836,32.19900131225586 C-35.37099838256836,32.19900131225586 -35.37099838256836,-17.236000061035156 -35.37099838256836,-17.236000061035156 C-35.37099838256836,-17.236000061035156 -35.37099838256836,-17.236000061035156 -35.37099838256836,-17.236000061035156 C-35.37099838256836,-24.159000396728516 -40.98400115966797,-29.77199935913086 -47.90700149536133,-29.77199935913086 C-47.90700149536133,-29.77199935913086 -83.70600128173828,-30.30699920654297 -83.70600128173828,-30.30699920654297z"/><g opacity="1" transform="matrix(1,0,0,1,0,0)"/></g><g transform="matrix(0.7071067690849304,-0.7071067690849304,-0.7071067690849304,-0.7071067690849304,221.54391479492188,216.44540405273438)" opacity="1" style="display: none;"><path class="primary" fill="rgb(197,156,244)" fill-opacity="1" d=" M-75.75740814208984,-5.2252197265625 C-75.75740814208984,-5.2252197265625 -75.13143920898438,0.5850558280944824 -75.21942901611328,7.147427558898926 C-75.30342864990234,13.35236930847168 -75.71244049072266,20.13340187072754 -75.71244049072266,20.13340187072754 C-75.71244049072266,20.13340187072754 -47.863037109375,19.962970733642578 -47.863037109375,19.962970733642578 C-40.94003677368164,19.962970733642578 -35.32703399658203,14.349969863891602 -35.32703399658203,7.4269700050354 C-35.32703399658203,7.4269700050354 -35.32703399658203,7.4269700050354 -35.32703399658203,7.4269700050354 C-35.32703399658203,7.4269700050354 -35.37099838256836,7.4930644035339355 -35.37099838256836,7.4930644035339355 C-35.37099838256836,7.4930644035339355 -35.37099838256836,7.4930644035339355 -35.37099838256836,7.4930644035339355 C-35.37099838256836,0.5700645446777344 -40.98400115966797,-5.042935371398926 -47.90700149536133,-5.042935371398926 C-47.90700149536133,-5.042935371398926 -75.75740814208984,-5.2252197265625 -75.75740814208984,-5.2252197265625z"/><g opacity="1" transform="matrix(1,0,0,1,0,0)"/></g></g><g mask="url(#__lottie_element_83_2)" style="mix-blend-mode: multiply; display: block;"><g clip-path="url(#__lottie_element_80)" transform="matrix(1,0,0,1,0,0)" opacity="0.5"><g transform="matrix(0.7071067690849304,-0.7071067690849304,0.7071067690849304,0.7071067690849304,211.443603515625,204.69808959960938)" opacity="1" style="display: none;"><path class="primary" fill="rgb(197,156,244)" fill-opacity="1" d=" M-76.5384292602539,-7.689742565155029 C-76.5384292602539,-7.689742565155029 -75.06290435791016,-1.3583258390426636 -75.15001678466797,7.199561595916748 C-75.23401641845703,15.5913724899292 -76.49788665771484,22.498172760009766 -76.49788665771484,22.498172760009766 C-76.49788665771484,22.498172760009766 -47.86735534667969,22.39715576171875 -47.86735534667969,22.39715576171875 C-40.94435501098633,22.39715576171875 -35.331356048583984,16.7840576171875 -35.331356048583984,9.86105728149414 C-35.331356048583984,9.86105728149414 -35.331356048583984,9.86105728149414 -35.331356048583984,9.86105728149414 C-35.331356048583984,9.86105728149414 -35.37099838256836,5.063199520111084 -35.37099838256836,5.063199520111084 C-35.37099838256836,5.063199520111084 -35.37099838256836,5.063199520111084 -35.37099838256836,5.063199520111084 C-35.37099838256836,-1.8598006963729858 -40.98400115966797,-7.4728007316589355 -47.90700149536133,-7.4728007316589355 C-47.90700149536133,-7.4728007316589355 -76.5384292602539,-7.689742565155029 -76.5384292602539,-7.689742565155029z"/><g opacity="1" transform="matrix(1,0,0,1,0,0)"/></g><g transform="matrix(0.7071067690849304,-0.7071067690849304,0.7071067690849304,0.7071067690849304,211.443603515625,204.69808959960938)" opacity="1" style="display: block;"><path class="primary" fill="rgb(197,156,244)" fill-opacity="1" d=" M-83.70600128173828,-30.30699920654297 C-83.70600128173828,-30.30699920654297 -74.43399810791016,-19.19300079345703 -74.51300048828125,7.677999973297119 C-74.59700012207031,36.138999938964844 -83.70600128173828,44.20000076293945 -83.70600128173828,44.20000076293945 C-83.70600128173828,44.20000076293945 -47.90700149536133,44.736000061035156 -47.90700149536133,44.736000061035156 C-40.98400115966797,44.736000061035156 -35.37099838256836,39.12200164794922 -35.37099838256836,32.19900131225586 C-35.37099838256836,32.19900131225586 -35.37099838256836,32.19900131225586 -35.37099838256836,32.19900131225586 C-35.37099838256836,32.19900131225586 -35.37099838256836,-17.236000061035156 -35.37099838256836,-17.236000061035156 C-35.37099838256836,-17.236000061035156 -35.37099838256836,-17.236000061035156 -35.37099838256836,-17.236000061035156 C-35.37099838256836,-24.159000396728516 -40.98400115966797,-29.77199935913086 -47.90700149536133,-29.77199935913086 C-47.90700149536133,-29.77199935913086 -83.70600128173828,-30.30699920654297 -83.70600128173828,-30.30699920654297z"/><g opacity="1" transform="matrix(1,0,0,1,0,0)"/></g><g transform="matrix(0.7071067690849304,-0.7071067690849304,-0.7071067690849304,-0.7071067690849304,221.54391479492188,216.44540405273438)" opacity="1" style="display: none;"><path class="primary" fill="rgb(197,156,244)" fill-opacity="1" d=" M-75.75740814208984,-5.2252197265625 C-75.75740814208984,-5.2252197265625 -75.13143920898438,0.5850558280944824 -75.21942901611328,7.147427558898926 C-75.30342864990234,13.35236930847168 -75.71244049072266,20.13340187072754 -75.71244049072266,20.13340187072754 C-75.71244049072266,20.13340187072754 -47.863037109375,19.962970733642578 -47.863037109375,19.962970733642578 C-40.94003677368164,19.962970733642578 -35.32703399658203,14.349969863891602 -35.32703399658203,7.4269700050354 C-35.32703399658203,7.4269700050354 -35.32703399658203,7.4269700050354 -35.32703399658203,7.4269700050354 C-35.32703399658203,7.4269700050354 -35.37099838256836,7.4930644035339355 -35.37099838256836,7.4930644035339355 C-35.37099838256836,7.4930644035339355 -35.37099838256836,7.4930644035339355 -35.37099838256836,7.4930644035339355 C-35.37099838256836,0.5700645446777344 -40.98400115966797,-5.042935371398926 -47.90700149536133,-5.042935371398926 C-47.90700149536133,-5.042935371398926 -75.75740814208984,-5.2252197265625 -75.75740814208984,-5.2252197265625z"/><g opacity="1" transform="matrix(1,0,0,1,0,0)"/></g></g></g><g clip-path="url(#__lottie_element_88)" transform="matrix(1,0,0,1,0,0)" opacity="1" style="display: block;"><g transform="matrix(0.7071067690849304,-0.7071067690849304,0.7071067690849304,0.7071067690849304,211.443603515625,204.69808959960938)" opacity="1" style="display: none;"><g opacity="1" transform="matrix(1,0,0,1,0,0)"><path class="primary" fill="rgb(197,156,244)" fill-opacity="1" d=" M-68.97676849365234,-3.6702687740325928 C-68.97676849365234,0.5815958380699158 -102.98587036132812,4.027393817901611 -144.93887329101562,4.027393817901611 C-186.89187622070312,4.027393817901611 -220.9017791748047,0.5815958380699158 -220.9017791748047,-3.6702687740325928 C-220.9017791748047,-7.922133445739746 -186.89187622070312,-11.368733406066895 -144.93887329101562,-11.368733406066895 C-102.98587036132812,-11.368733406066895 -68.97676849365234,-7.922133445739746 -68.97676849365234,-3.6702687740325928z M-99.69586944580078,-3.6701698303222656 C-99.69586944580078,-6.202095031738281 -119.95187377929688,-8.255906105041504 -144.93887329101562,-8.255906105041504 C-169.92587280273438,-8.255906105041504 -190.18186950683594,-6.2021942138671875 -190.18186950683594,-3.6702687740325928 C-190.18186950683594,-1.1383436918258667 -169.92587280273438,0.9145663380622864 -144.93887329101562,0.9145663380622864 C-119.95187377929688,0.9145663380622864 -99.69586944580078,-1.13824462890625 -99.69586944580078,-3.6701698303222656z"/></g></g><g transform="matrix(0.7071067690849304,-0.7071067690849304,0.7071067690849304,0.7071067690849304,211.443603515625,204.69808959960938)" opacity="1" style="display: block;"><g opacity="1" transform="matrix(1,0,0,1,0,0)"><path class="primary" fill="rgb(197,156,244)" fill-opacity="1" d=" M-69.00199890136719,7.142000198364258 C-69.00199890136719,-34.59199905395508 -103.01200103759766,-68.42500305175781 -144.96499633789062,-68.42500305175781 C-186.91799926757812,-68.42500305175781 -220.927001953125,-34.59199905395508 -220.927001953125,7.142000198364258 C-220.927001953125,48.875999450683594 -186.91799926757812,82.70800018310547 -144.96499633789062,82.70800018310547 C-103.01200103759766,82.70800018310547 -69.00199890136719,48.875999450683594 -69.00199890136719,7.142000198364258z M-99.72200012207031,7.142000198364258 C-99.72200012207031,31.999000549316406 -119.97799682617188,52.14799880981445 -144.96499633789062,52.14799880981445 C-169.95199584960938,52.14799880981445 -190.20799255371094,31.999000549316406 -190.20799255371094,7.142000198364258 C-190.20799255371094,-17.71500015258789 -169.95199584960938,-37.8650016784668 -144.96499633789062,-37.8650016784668 C-119.97799682617188,-37.8650016784668 -99.72200012207031,-17.71500015258789 -99.72200012207031,7.142000198364258z"/></g></g><g transform="matrix(0.7071067690849304,-0.7071067690849304,-0.7071067690849304,-0.7071067690849304,221.54391479492188,216.44540405273438)" opacity="1" style="display: none;"><g opacity="1" transform="matrix(1,0,0,1,0,0)"><path class="primary" fill="rgb(197,156,244)" fill-opacity="1" d=" M-68.87310028076172,20.131528854370117 C-68.87310028076172,20.207822799682617 -102.8821029663086,20.26849937438965 -144.83509826660156,20.26849937438965 C-186.78810119628906,20.26849937438965 -220.79811096191406,20.207822799682617 -220.79811096191406,20.131528854370117 C-220.79811096191406,20.055234909057617 -186.78810119628906,19.99355697631836 -144.83509826660156,19.99355697631836 C-102.8821029663086,19.99355697631836 -68.87310028076172,20.055234909057617 -68.87310028076172,20.131528854370117z M-99.59210205078125,20.131528854370117 C-99.59210205078125,20.08660316467285 -119.84810638427734,20.048877716064453 -144.83509826660156,20.048877716064453 C-169.8220977783203,20.048877716064453 -190.0791015625,20.08660316467285 -190.0791015625,20.131528854370117 C-190.0791015625,20.176454544067383 -169.8220977783203,20.213180541992188 -144.83509826660156,20.213180541992188 C-119.84810638427734,20.213180541992188 -99.59210205078125,20.176454544067383 -99.59210205078125,20.131528854370117z"/></g></g></g><g mask="url(#__lottie_element_95_2)" style="mix-blend-mode: multiply; display: block;"><g clip-path="url(#__lottie_element_92)" transform="matrix(1,0,0,1,0,0)" opacity="0.5"><g transform="matrix(0.7071067690849304,-0.7071067690849304,0.7071067690849304,0.7071067690849304,211.443603515625,204.69808959960938)" opacity="1" style="display: none;"><g opacity="1" transform="matrix(1,0,0,1,0,0)"><path class="primary" fill="rgb(197,156,244)" fill-opacity="1" d=" M-68.97676849365234,-3.6702687740325928 C-68.97676849365234,0.5815958380699158 -102.98587036132812,4.027393817901611 -144.93887329101562,4.027393817901611 C-186.89187622070312,4.027393817901611 -220.9017791748047,0.5815958380699158 -220.9017791748047,-3.6702687740325928 C-220.9017791748047,-7.922133445739746 -186.89187622070312,-11.368733406066895 -144.93887329101562,-11.368733406066895 C-102.98587036132812,-11.368733406066895 -68.97676849365234,-7.922133445739746 -68.97676849365234,-3.6702687740325928z M-99.69586944580078,-3.6701698303222656 C-99.69586944580078,-6.202095031738281 -119.95187377929688,-8.255906105041504 -144.93887329101562,-8.255906105041504 C-169.92587280273438,-8.255906105041504 -190.18186950683594,-6.2021942138671875 -190.18186950683594,-3.6702687740325928 C-190.18186950683594,-1.1383436918258667 -169.92587280273438,0.9145663380622864 -144.93887329101562,0.9145663380622864 C-119.95187377929688,0.9145663380622864 -99.69586944580078,-1.13824462890625 -99.69586944580078,-3.6701698303222656z"/></g></g><g transform="matrix(0.7071067690849304,-0.7071067690849304,0.7071067690849304,0.7071067690849304,211.443603515625,204.69808959960938)" opacity="1" style="display: block;"><g opacity="1" transform="matrix(1,0,0,1,0,0)"><path class="primary" fill="rgb(197,156,244)" fill-opacity="1" d=" M-69.00199890136719,7.142000198364258 C-69.00199890136719,-34.59199905395508 -103.01200103759766,-68.42500305175781 -144.96499633789062,-68.42500305175781 C-186.91799926757812,-68.42500305175781 -220.927001953125,-34.59199905395508 -220.927001953125,7.142000198364258 C-220.927001953125,48.875999450683594 -186.91799926757812,82.70800018310547 -144.96499633789062,82.70800018310547 C-103.01200103759766,82.70800018310547 -69.00199890136719,48.875999450683594 -69.00199890136719,7.142000198364258z M-99.72200012207031,7.142000198364258 C-99.72200012207031,31.999000549316406 -119.97799682617188,52.14799880981445 -144.96499633789062,52.14799880981445 C-169.95199584960938,52.14799880981445 -190.20799255371094,31.999000549316406 -190.20799255371094,7.142000198364258 C-190.20799255371094,-17.71500015258789 -169.95199584960938,-37.8650016784668 -144.96499633789062,-37.8650016784668 C-119.97799682617188,-37.8650016784668 -99.72200012207031,-17.71500015258789 -99.72200012207031,7.142000198364258z"/></g></g><g transform="matrix(0.7071067690849304,-0.7071067690849304,-0.7071067690849304,-0.7071067690849304,221.54391479492188,216.44540405273438)" opacity="1" style="display: none;"><g opacity="1" transform="matrix(1,0,0,1,0,0)"><path class="primary" fill="rgb(197,156,244)" fill-opacity="1" d=" M-68.87310028076172,20.131528854370117 C-68.87310028076172,20.207822799682617 -102.8821029663086,20.26849937438965 -144.83509826660156,20.26849937438965 C-186.78810119628906,20.26849937438965 -220.79811096191406,20.207822799682617 -220.79811096191406,20.131528854370117 C-220.79811096191406,20.055234909057617 -186.78810119628906,19.99355697631836 -144.83509826660156,19.99355697631836 C-102.8821029663086,19.99355697631836 -68.87310028076172,20.055234909057617 -68.87310028076172,20.131528854370117z M-99.59210205078125,20.131528854370117 C-99.59210205078125,20.08660316467285 -119.84810638427734,20.048877716064453 -144.83509826660156,20.048877716064453 C-169.8220977783203,20.048877716064453 -190.0791015625,20.08660316467285 -190.0791015625,20.131528854370117 C-190.0791015625,20.176454544067383 -169.8220977783203,20.213180541992188 -144.83509826660156,20.213180541992188 C-119.84810638427734,20.213180541992188 -99.59210205078125,20.176454544067383 -99.59210205078125,20.131528854370117z"/></g></g></g></g><g transform="matrix(1,0,0,1,215,215)" opacity="1" style="display: none;"><g opacity="1" transform="matrix(1,0,0,1,0,0)"><path stroke-linecap="butt" stroke-linejoin="miter" fill-opacity="0" stroke-miterlimit="4" class="primary" stroke="rgb(197,156,244)" stroke-opacity="1" stroke-width="2" d="M0 0"/></g><g opacity="1" transform="matrix(1,0,0,1,0,0)"><path class="primary" fill="rgb(197,156,244)" fill-opacity="1" d=" M-48,40.75 C-29.5,57.75 -6.308000087738037,115.55599975585938 -50.53900146484375,154.94200134277344 C-101,199.875 -153.375,156 -161.25,143.5 C-161.29400634765625,143.4290008544922 -161.29400634765625,143.1790008544922 -161.25,143.25 C-153.375,155.875 -101.125,200.125 -49.744998931884766,154.24200439453125 C-3.4590001106262207,112.90799713134766 -32.5,55.25 -47.875,40.625 C-47.917999267578125,40.58399963378906 -48.04399871826172,40.709999084472656 -48,40.75z"/></g></g><g transform="matrix(1,0,0,1,215,215)" opacity="1" style="display: none;"><g opacity="1" transform="matrix(1,0,0,1,0,0)"><path stroke-linecap="butt" stroke-linejoin="miter" fill-opacity="0" stroke-miterlimit="4" class="primary" stroke="rgb(197,156,244)" stroke-opacity="1" stroke-width="2" d="M0 0"/></g><g opacity="1" transform="matrix(1,0,0,1,0,0)"><path class="primary" fill="rgb(197,156,244)" fill-opacity="1" d=" M-48,40.75 C-29.500001907348633,57.75 -6.308006286621094,115.55599975585938 -50.539005279541016,154.94200134277344 C-101,199.875 -153.375,156 -161.25,143.5 C-161.29400634765625,143.4290008544922 -161.2939910888672,143.1790008544922 -161.25,143.25 C-153.375,155.875 -101.125,200.125 -49.74500274658203,154.24200439453125 C-3.4590036869049072,112.90799713134766 -32.5,55.25 -47.875,40.625 C-47.917999267578125,40.58399963378906 -48.04399871826172,40.709999084472656 -48,40.75z"/></g></g></g></g></svg>